<svg xmlns="http://www.w3.org/2000/svg" height="48" width="48"><path d="m4.25 21.15 8.85 3.8q1.8-4.1 3.625-7.05t4.525-6l-4.1-.75q-1.15-.25-2.275.1T12.95 12.4Zm11.15 4.7 7.95 7.95q3.95-1.75 7.425-4 3.475-2.25 5.925-4.7 4.3-4.3 6.4-9.85 2.1-5.55 1.4-10.5Q39.55 4 33.975 6.125T24.1 12.55q-2.5 2.5-4.75 5.925T15.4 25.85Zm14.7-6.75q-.95-.9-.95-2.275t.95-2.325q.95-.9 2.3-.9 1.35 0 2.3.9.95.95.95 2.325 0 1.375-.95 2.275-.95.95-2.3.95-1.35 0-2.3-.95Zm-2.05 25.85 8.7-8.7q.8-.8 1.15-1.925.35-1.125.15-2.325l-.75-4.1q-3.1 2.75-6.025 4.575Q28.35 34.3 24.25 36.1Zm-20.6-12.1Q9.3 31 11.925 30.975 14.55 30.95 16.4 32.8q1.85 1.85 1.85 4.475 0 2.625-1.85 4.475-1.4 1.4-4.2 2.3-2.8.9-8.65 1.6.7-5.85 1.6-8.625.9-2.775 2.3-4.175Z"/></svg>